<svg xmlns="http://www.w3.org/2000/svg" width="253.333" height="253.333" preserveAspectRatio="xMidYMid meet" version="1.0" viewBox="0 0 190 190"><metadata>Created by potrace 1.11, written by Peter Selinger 2001-2013</metadata><g fill="#000" stroke="none"><path d="M0 950 l0 -950 950 0 950 0 0 950 0 950 -950 0 -950 0 0 -950z m1181 829 c11 -6 34 -31 50 -57 37 -58 40 -119 7 -149 -25 -23 -495 -186 -509 -177 -5 3 -9 9 -9 13 0 4 83 91 185 194 171 173 188 187 221 187 19 0 44 -5 55 -11z m-36 -483 c226 -60 408 -231 460 -433 31 -120 15 -258 -44 -378 -112 -226 -416 -373 -697 -335 -341 45 -575 283 -576 586 0 153 55 276 178 397 71 70 223 149 329 172 86 18 264 14 350 -9z" transform="translate(0.000000,190.000000) scale(0.100000,-0.100000)"/><path d="M900 1186 c-220 -59 -323 -443 -195 -723 30 -66 104 -146 159 -173 87 -41 176 -21 257 60 92 91 139 219 139 381 0 287 -173 506 -360 455z" transform="translate(0.000000,190.000000) scale(0.100000,-0.100000)"/></g></svg>