<svg xmlns="http://www.w3.org/2000/svg" xmlns:xlink="http://www.w3.org/1999/xlink" id="Capa_1" width="387.279" height="190" x="0" y="0" enable-background="new 0 0 387.279 190" version="1.1" viewBox="0 0 387.279 190" xml:space="preserve"><rect width="388.188" height="189.652" x="-.324" y=".348" fill="#B70000" fill-rule="evenodd" clip-rule="evenodd" display="none"/><rect width="298.487" height="70.949" x="28.154" y="23.428" fill="none" fill-rule="evenodd" clip-rule="evenodd"/><g><path fill="#FFF" d="M217.646,110.935c0,2.344-0.48,4.204-1.44,5.579c-0.961,1.376-2.247,2.064-3.86,2.064 c-1.904,0-3.362-0.723-4.374-2.168v7.671h-1.531v-20.817h1.429l0.077,2.126c1.003-1.603,2.457-2.404,4.361-2.404 c1.664,0,2.97,0.681,3.918,2.043c0.947,1.362,1.421,3.252,1.421,5.67V110.935z M216.102,110.643c0-1.918-0.364-3.433-1.093-4.544 c-0.729-1.112-1.746-1.668-3.05-1.668c-0.943,0-1.754,0.246-2.432,0.736c-0.678,0.491-1.196,1.205-1.557,2.141v7.212 c0.368,0.862,0.896,1.52,1.582,1.974c0.687,0.454,1.497,0.681,2.432,0.681c1.296,0,2.306-0.558,3.03-1.674 C215.739,114.383,216.102,112.765,216.102,110.643z"/><path fill="#FFF" d="M227.488,104.681c-0.326-0.064-0.674-0.097-1.042-0.097c-0.961,0-1.774,0.289-2.438,0.868 c-0.665,0.579-1.139,1.42-1.422,2.522V118.3h-1.531v-15.036h1.506l0.025,2.39c0.814-1.778,2.123-2.668,3.924-2.668 c0.43,0,0.768,0.061,1.017,0.181L227.488,104.681z"/><path fill="#FFF" d="M228.813,110.56c0-1.445,0.259-2.747,0.778-3.905c0.519-1.158,1.252-2.059,2.2-2.703 c0.947-0.644,2.021-0.966,3.223-0.966c1.853,0,3.354,0.702,4.503,2.105s1.725,3.264,1.725,5.579v0.348 c0,1.455-0.26,2.764-0.778,3.926c-0.52,1.163-1.251,2.06-2.194,2.689s-2.02,0.945-3.229,0.945c-1.844,0-3.343-0.702-4.496-2.105 c-1.154-1.404-1.73-3.264-1.73-5.58V110.56z M230.357,111.018c0,1.798,0.431,3.273,1.293,4.427s1.992,1.729,3.39,1.729 c1.39,0,2.516-0.576,3.378-1.729c0.861-1.153,1.293-2.676,1.293-4.565v-0.319c0-1.149-0.197-2.2-0.592-3.155 c-0.395-0.954-0.948-1.692-1.66-2.216s-1.526-0.785-2.444-0.785c-1.372,0-2.492,0.581-3.358,1.743 c-0.866,1.163-1.299,2.685-1.299,4.565V111.018z"/><path fill="#FFF" d="M245.822,103.264l0.052,2.445c0.515-0.907,1.158-1.589,1.93-2.043c0.772-0.453,1.63-0.681,2.573-0.681 c2.196,0,3.59,0.973,4.182,2.918c0.497-0.936,1.162-1.655,1.994-2.16s1.75-0.758,2.754-0.758c2.984,0,4.507,1.761,4.567,5.281 V118.3h-1.544v-9.908c-0.009-1.344-0.277-2.34-0.805-2.988s-1.388-0.973-2.579-0.973c-1.106,0.019-2.042,0.405-2.805,1.16 c-0.764,0.756-1.188,1.675-1.274,2.759v9.95h-1.544v-10.033c-0.009-1.288-0.289-2.249-0.843-2.884 c-0.553-0.635-1.404-0.952-2.554-0.952c-0.97,0-1.801,0.299-2.496,0.896c-0.694,0.598-1.209,1.484-1.544,2.661V118.3h-1.544 v-15.036H245.822z"/><path fill="#FFF" d="M266.923,110.56c0-1.445,0.259-2.747,0.778-3.905c0.519-1.158,1.252-2.059,2.2-2.703 c0.947-0.644,2.021-0.966,3.223-0.966c1.853,0,3.354,0.702,4.503,2.105s1.725,3.264,1.725,5.579v0.348 c0,1.455-0.26,2.764-0.778,3.926c-0.52,1.163-1.251,2.06-2.194,2.689s-2.02,0.945-3.229,0.945c-1.844,0-3.343-0.702-4.496-2.105 c-1.154-1.404-1.73-3.264-1.73-5.58V110.56z M268.467,111.018c0,1.798,0.431,3.273,1.293,4.427s1.992,1.729,3.39,1.729 c1.39,0,2.516-0.576,3.378-1.729c0.861-1.153,1.293-2.676,1.293-4.565v-0.319c0-1.149-0.197-2.2-0.592-3.155 c-0.395-0.954-0.948-1.692-1.66-2.216s-1.526-0.785-2.444-0.785c-1.372,0-2.492,0.581-3.358,1.743 c-0.866,1.163-1.299,2.685-1.299,4.565V111.018z"/><path fill="#FFF" d="M287.676,117.174c1.072,0,1.971-0.326,2.695-0.979s1.117-1.498,1.178-2.536h1.479 c-0.043,0.917-0.309,1.754-0.798,2.509s-1.139,1.346-1.949,1.771s-1.679,0.64-2.605,0.64c-1.827,0-3.274-0.686-4.342-2.057 c-1.068-1.371-1.603-3.215-1.603-5.531v-0.501c0-1.481,0.24-2.793,0.721-3.933s1.169-2.02,2.065-2.64 c0.896-0.621,1.944-0.932,3.146-0.932c1.526,0,2.785,0.491,3.776,1.473c0.99,0.982,1.521,2.275,1.589,3.878h-1.479 c-0.069-1.177-0.461-2.126-1.178-2.849c-0.716-0.723-1.619-1.084-2.708-1.084c-1.39,0-2.468,0.542-3.235,1.626 c-0.769,1.084-1.152,2.604-1.152,4.558v0.486c0,1.918,0.384,3.414,1.152,4.489C285.195,116.637,286.277,117.174,287.676,117.174z"/><path fill="#FFF" d="M296.013,98.92c0-0.313,0.095-0.577,0.283-0.793c0.188-0.217,0.445-0.325,0.771-0.325 s0.586,0.108,0.778,0.325c0.193,0.216,0.29,0.48,0.29,0.793c0,0.314-0.097,0.576-0.29,0.788c-0.192,0.212-0.452,0.317-0.778,0.317 s-0.583-0.105-0.771-0.317S296.013,99.234,296.013,98.92z M297.827,118.3h-1.544v-15.036h1.544V118.3z"/><path fill="#FFF" d="M301.16,110.56c0-1.445,0.259-2.747,0.778-3.905c0.519-1.158,1.252-2.059,2.2-2.703 c0.947-0.644,2.021-0.966,3.223-0.966c1.853,0,3.354,0.702,4.503,2.105s1.725,3.264,1.725,5.579v0.348 c0,1.455-0.26,2.764-0.778,3.926c-0.52,1.163-1.251,2.06-2.194,2.689s-2.02,0.945-3.229,0.945c-1.844,0-3.343-0.702-4.496-2.105 c-1.154-1.404-1.73-3.264-1.73-5.58V110.56z M302.704,111.018c0,1.798,0.431,3.273,1.293,4.427s1.992,1.729,3.39,1.729 c1.39,0,2.516-0.576,3.378-1.729c0.861-1.153,1.293-2.676,1.293-4.565v-0.319c0-1.149-0.197-2.2-0.592-3.155 c-0.395-0.954-0.948-1.692-1.66-2.216s-1.526-0.785-2.444-0.785c-1.372,0-2.492,0.581-3.358,1.743 c-0.866,1.163-1.299,2.685-1.299,4.565V111.018z"/><path fill="#FFF" d="M318.232,103.264l0.052,2.57c0.523-0.926,1.175-1.633,1.955-2.119c0.781-0.486,1.643-0.729,2.587-0.729 c1.492,0,2.603,0.454,3.332,1.362c0.729,0.908,1.098,2.27,1.106,4.085v9.867h-1.531v-9.881c-0.009-1.343-0.272-2.344-0.791-3.002 c-0.52-0.657-1.349-0.986-2.489-0.986c-0.952,0-1.795,0.322-2.528,0.966c-0.733,0.645-1.276,1.513-1.628,2.605V118.3h-1.531 v-15.036H318.232z"/><path fill="#FFF" d="M336.632,118.578c-1.185,0-2.254-0.315-3.211-0.945c-0.956-0.63-1.7-1.508-2.231-2.634 c-0.532-1.125-0.798-2.388-0.798-3.787v-0.597c0-1.445,0.259-2.747,0.778-3.905c0.519-1.158,1.241-2.068,2.168-2.73 c0.926-0.663,1.93-0.994,3.011-0.994c1.689,0,3.029,0.623,4.021,1.869c0.99,1.246,1.486,2.948,1.486,5.107v0.931h-9.933v0.319 c0,1.705,0.452,3.125,1.356,4.26c0.905,1.135,2.044,1.702,3.416,1.702c0.824,0,1.551-0.162,2.182-0.486 c0.63-0.324,1.202-0.843,1.717-1.557l0.966,0.793C340.427,117.693,338.784,118.578,336.632,118.578z M336.349,104.403 c-1.158,0-2.134,0.458-2.928,1.375c-0.793,0.918-1.275,2.149-1.447,3.697h8.351v-0.181c-0.043-1.445-0.425-2.622-1.146-3.53 C338.458,104.857,337.515,104.403,336.349,104.403z"/><path fill="#FFF" d="M353.19,114.479c0-0.825-0.308-1.487-0.92-1.987c-0.613-0.501-1.538-0.892-2.773-1.175 c-1.234-0.282-2.193-0.606-2.875-0.973s-1.188-0.813-1.519-1.341s-0.495-1.168-0.495-1.918c0-1.186,0.459-2.165,1.377-2.939 c0.917-0.773,2.093-1.16,3.525-1.16c1.552,0,2.798,0.415,3.737,1.244s1.409,1.91,1.409,3.244h-1.544 c0-0.88-0.342-1.611-1.023-2.195s-1.542-0.875-2.579-0.875c-1.013,0-1.825,0.243-2.438,0.729s-0.92,1.118-0.92,1.896 c0,0.751,0.255,1.332,0.766,1.744c0.51,0.412,1.44,0.79,2.792,1.133c1.351,0.343,2.362,0.709,3.036,1.098 c0.673,0.389,1.173,0.857,1.499,1.403c0.326,0.547,0.489,1.209,0.489,1.987c0,1.27-0.475,2.284-1.422,3.044 c-0.948,0.76-2.186,1.14-3.712,1.14c-1.621,0-2.936-0.424-3.943-1.271c-1.008-0.849-1.512-1.92-1.512-3.218h1.544 c0.06,0.973,0.439,1.73,1.139,2.272c0.698,0.542,1.623,0.813,2.772,0.813c1.072,0,1.938-0.254,2.599-0.764 S353.19,115.257,353.19,114.479z"/></g><g><path fill="#FFF" fill-rule="evenodd" d="M250.739,95.531c-9.1,0-9.1,0-9.1,0c0-25.238,0-25.238,0-25.238 c11.113,0,8.555,0,8.555,0c0,6.279,0,5.195,0,5.195c1.127-1.574,2.369-2.779,4.613-3.881c5.625-2.76,16.908-2.361,16.908,7.803 c0,7.785,0,6.846,0,7.105c0,9.016,0,9.016,0,9.016c-9.098,0-9.098,0-9.098,0c0-12.941,0-12.941,0-12.941 c0-2.189-0.096-3.922-1.982-5.139c-3.771-2.432-9.896-0.533-9.896,3.961V95.531L250.739,95.531z" clip-rule="evenodd"/><path fill="#FFF" fill-rule="evenodd" d="M332.335,95.531c-9.098,0-9.098,0-9.098,0 c0-25.238,0-25.238,0-25.238c11.115,0,8.557,0,8.557,0c0,6.279,0,5.195,0,5.195c1.125-1.574,2.365-2.779,4.609-3.881 c5.627-2.76,16.912-2.361,16.912,7.803c0,7.785,0,6.846,0,7.105c0,9.016,0,9.016,0,9.016c-9.102,0-9.102,0-9.102,0 c0-12.941,0-12.941,0-12.941c0-2.189-0.096-3.922-1.982-5.139c-3.77-2.432-9.896-0.533-9.896,3.961V95.531L332.335,95.531z" clip-rule="evenodd"/><path fill="#FFF" fill-rule="evenodd" d="M235.667,95.547c-9.102,0-9.102,0-9.102,0 c0-25.238,0-25.238,0-25.238c9.102,0,9.102,0,9.102,0V95.547L235.667,95.547z M236.093,60.477c0.857,2.25-0.674,4.926-3.422,5.975 c-2.748,1.047-5.672,0.07-6.529-2.182c-0.857-2.254,0.672-4.928,3.422-5.975C232.312,57.248,235.235,58.223,236.093,60.477z" clip-rule="evenodd"/><path fill="#FFF" fill-rule="evenodd" d="M286.786,95.547c-9.098,0-9.098,0-9.098,0 c0-25.238,0-25.238,0-25.238c9.098,0,9.098,0,9.098,0V95.547L286.786,95.547z M287.214,60.477c0.857,2.25-0.676,4.926-3.422,5.975 c-2.75,1.047-5.672,0.07-6.531-2.182c-0.857-2.254,0.674-4.928,3.424-5.975C283.433,57.248,286.354,58.223,287.214,60.477z" clip-rule="evenodd"/><polygon fill="#FFF" fill-rule="evenodd" points="112.178 95.547 103.078 95.547 103.078 57.686 112.178 57.686 112.178 95.547" clip-rule="evenodd"/><path fill="#FFF" fill-rule="evenodd" d="M172.65,70.318c7.825,0,14.475,5.691,14.475,13.779 c0,7.996-7.24,12.162-14.475,12.162c-7.445,0-14.104-4.945-14.104-12.781C158.547,75.852,165.35,70.318,172.65,70.318 L172.65,70.318L172.65,70.318z M172.65,73.014c4.332,0,5.377,4.875,5.377,10.465c0,5.582-1.045,10.461-5.377,10.461 c-3.836,0-5.004-4.879-5.004-10.461C167.646,77.889,168.814,73.014,172.65,73.014L172.65,73.014L172.65,73.014z" clip-rule="evenodd"/><path fill="#FFF" fill-rule="evenodd" d="M304.858,70.318c7.822,0,14.473,5.691,14.473,13.779 c0,7.996-7.24,12.162-14.473,12.162c-7.447,0-14.104-4.945-14.104-12.781C290.755,75.852,297.554,70.318,304.858,70.318 L304.858,70.318L304.858,70.318z M304.858,73.014c4.328,0,5.375,4.875,5.375,10.465c0,5.582-1.047,10.461-5.375,10.461 c-3.838,0-5.006-4.879-5.006-10.461C299.853,77.889,301.021,73.014,304.858,73.014L304.858,73.014L304.858,73.014z" clip-rule="evenodd"/><path fill="#FFF" d="M222.64,82.461c-0.01-7.023-4.836-12.803-11.057-13.604c-0.486-0.063-0.977-0.104-1.479-0.104 c-4.73,0-7.931,1.637-9.921,4.309c-0.012,0.01-0.027,0.029-0.041,0.039c0-0.477,0-0.119,0-2.783c-0.137,0,0.221,0-9.099,0 c0,0,0,0.729,0,37.824h9.099c0,0,0-1.531,0-15.299c0-0.002,0-0.002,0-0.002c2.559,1.869,5.315,2.945,7.989,3.293 c0.621,0.047,1.279,0.07,1.973,0.07c6.918,0,12.529-6.139,12.535-13.713C222.64,82.482,222.64,82.473,222.64,82.461z M205.399,92.076c-2.095,0-3.921-1.139-5.257-2.381c0-4.684,0-8.104,0-12.789c4.414-5.611,11.46-2.752,12.966,3.344 C214.438,85.641,211.823,92.076,205.399,92.076z"/><g><path fill="#FFF" d="M213.446,82.834c0-0.59-0.082-1.166-0.221-1.717c0.125,0.617,0.195,1.258,0.211,1.916 C213.437,82.969,213.446,82.904,213.446,82.834z"/></g><path fill="#FFF" d="M312.716,59.838c-0.428-0.727-1.256-1.232-2.221-1.354c-0.969-0.123-1.9,0.16-2.496,0.76l-7.551,7.551 l0.707,0.877l10.363-3.545c0.66-0.223,1.166-0.744,1.432-1.463C313.286,61.754,313.192,60.643,312.716,59.838z"/><path fill="#FFF" fill-rule="evenodd" d="M123.709,73.705c2.25,1.926,0.639,6.535-2.482,6.535 c-2.225,0-4.055-1.438-4.055-3.398c0-8.891,12.944-8.238,18.436-6.67c5.229,1.832,6.406,4.578,6.406,9.547 c0,15.691,0,15.691,0,15.691c-10.067,0-10.067,0-10.067,0c0-1.961,0-1.961,0-1.961c-4.968,3.396-16.475,2.611-16.475-5.1 c0-8.25,10.887-8.68,16.475-6.41c0-2.875-0.524-10.328-4.184-10.328C125.277,71.611,122.924,71.611,123.709,73.705L123.709,73.705z M124.622,83.902c3.531,0,5.757,1.961,5.757,4.707c0,2.617-2.226,4.967-5.757,4.967c-3.396,0-5.62-2.35-5.62-4.967 C119.002,85.863,121.227,83.902,124.622,83.902L124.622,83.902L124.622,83.902z" clip-rule="evenodd"/></g><g><g><path fill="#FFF" fill-rule="evenodd" d="M63.799,84.924c10.557,0.371,19.265,8.365,18.88,19.285 c-0.382,10.784-10.344,16.064-20.104,15.725c-10.051-0.352-18.801-7.343-18.429-17.914C44.509,91.719,53.943,84.583,63.799,84.924 L63.799,84.924L63.799,84.924z M63.677,88.568c5.835,0.201,7.016,6.83,6.757,14.373c-0.27,7.533-1.909,14.064-7.753,13.858 c-5.178-0.184-6.522-6.817-6.258-14.35C56.687,94.908,58.493,88.384,63.677,88.568L63.677,88.568L63.677,88.568z" clip-rule="evenodd"/><path fill="#FFF" d="M73.79,72.258c-0.543-0.997-1.636-1.725-2.933-1.932c-1.304-0.213-2.573,0.129-3.408,0.909l-10.542,9.833 l0.911,1.217l14.154-4.293c0.899-0.273,1.609-0.952,2.001-1.908C74.467,74.875,74.398,73.365,73.79,72.258z"/></g><g><g><path fill="#FFF" d="M79.725,65.354l-0.013-7.426c-0.001-2.471-0.047-4.938-0.09-7.398c-0.038-1.229-0.072-2.457-0.146-3.679 c-0.053-1.223-0.128-2.442-0.246-3.644c-0.118-1.193-0.261-2.408-0.535-3.484c-0.075-0.256-0.119-0.57-0.216-0.775l-0.133-0.307 l-0.061-0.156l-0.03-0.077l-0.014-0.04l-0.008-0.02l-0.003-0.01c0.018,0.029-0.046-0.077,0.039,0.063 c-0.313-0.447-0.685-0.926-1.059-1.375c-1.509-1.814-3.245-3.449-5.139-4.775c-1.88-1.346-3.972-2.34-6.142-2.732 c-1.083-0.219-2.183-0.232-3.269-0.137c-1.089,0.083-2.166,0.354-3.206,0.753c-1.053,0.366-2.041,0.943-3.011,1.545 c-0.482,0.309-0.937,0.672-1.408,1.003l-1.348,1.117l-0.378,0.248c0.126-0.063,0.032-0.01,0.021-0.002 c-0.021,0.004-0.076,0.063-0.115,0.094c-0.086,0.063-0.178,0.158-0.271,0.264c-0.192,0.18-0.363,0.455-0.548,0.688 c-0.173,0.26-0.33,0.547-0.499,0.817c-0.153,0.29-0.29,0.598-0.438,0.896c-0.282,0.605-0.515,1.26-0.748,1.904 c-0.194,0.67-0.422,1.324-0.594,2.009c-0.165,0.687-0.353,1.366-0.501,2.06l-0.398,2.101c-0.135,0.7-0.206,1.417-0.313,2.126 c-0.093,0.711-0.213,1.42-0.276,2.139c-0.143,1.434-0.328,2.867-0.396,4.314l-0.153,2.168c-0.067,0.723-0.077,1.449-0.112,2.174 c-0.038,1.451-0.161,2.905-0.171,4.361c-0.021,1.455-0.083,2.915-0.128,4.377c-0.172-1.449-0.361-2.9-0.51-4.355 c-0.181-1.453-0.24-2.915-0.344-4.377c-0.042-0.73-0.108-1.462-0.118-2.195l-0.052-2.201c-0.052-1.468,0.016-2.939,0.04-4.414 c0.001-0.736,0.065-1.475,0.124-2.212c0.065-0.737,0.097-1.477,0.192-2.214l0.285-2.217c0.112-0.738,0.268-1.476,0.401-2.215 c0.131-0.741,0.371-1.471,0.554-2.207c0.233-0.732,0.465-1.465,0.771-2.19c0.161-0.361,0.31-0.725,0.484-1.085 c0.2-0.357,0.384-0.716,0.602-1.07c0.25-0.351,0.457-0.704,0.776-1.047c0.144-0.17,0.298-0.342,0.495-0.512 c0.101-0.086,0.169-0.164,0.304-0.256c0.14-0.094,0.189-0.155,0.479-0.299l-0.378,0.248c0.488-0.432,0.97-0.872,1.472-1.291 c0.532-0.389,1.043-0.802,1.597-1.167c1.116-0.715,2.272-1.402,3.552-1.873c1.258-0.5,2.6-0.854,3.975-0.979 c1.369-0.152,2.77-0.078,4.11,0.195c2.698,0.526,5.153,1.761,7.269,3.311c2.119,1.563,3.93,3.437,5.516,5.474 c0.397,0.517,0.769,1.026,1.145,1.606c0.09,0.147,0.028,0.051,0.051,0.088l0.007,0.018l0.015,0.034l0.027,0.068l0.056,0.138 l0.109,0.275l0.208,0.555c0.128,0.371,0.148,0.68,0.226,1.022c0.254,1.339,0.315,2.598,0.369,3.866 c0.046,1.265,0.058,2.518,0.024,3.766c-0.028,1.25-0.096,2.494-0.159,3.736c-0.084,1.24-0.145,2.481-0.268,3.717l-0.359,3.705 C80.448,60.446,80.121,62.904,79.725,65.354z"/></g><g><path fill="#FFF" d="M83.654,62.167c0,0,0.128,0.204,0.276,0.599c0.143,0.393,0.316,0.979,0.328,1.731 c-0.007,0.19-0.014,0.39-0.021,0.595c-0.028,0.207-0.068,0.422-0.114,0.646c-0.124,0.44-0.313,0.915-0.634,1.349 c-0.317,0.432-0.751,0.833-1.25,1.094c-0.495,0.292-1.039,0.428-1.568,0.529l-0.789,0.067c-0.467,0.009-0.687-0.091-0.98-0.177 c-0.552-0.188-1.044-0.51-1.428-0.901c-0.397-0.386-0.642-0.856-0.816-1.291c-0.16-0.444-0.213-0.87-0.24-1.251 c-0.018-0.762,0.117-1.355,0.251-1.752c0.139-0.398,0.235-0.612,0.235-0.612s0.07,0.236,0.163,0.626 c0.033,0.196,0.119,0.428,0.188,0.684c0.061,0.261,0.193,0.529,0.287,0.819c0.257,0.561,0.611,1.12,1.112,1.452 c0.246,0.172,0.526,0.295,0.823,0.373c0.13,0.036,0.351,0.064,0.333,0.049l0.557-0.063c0.723-0.114,1.315-0.357,1.768-0.781 c0.228-0.211,0.417-0.471,0.588-0.747c0.154-0.285,0.295-0.58,0.405-0.874c0.092-0.297,0.187-0.579,0.252-0.84 c0.061-0.268,0.113-0.5,0.156-0.691C83.617,62.406,83.654,62.167,83.654,62.167z"/></g><g><path fill="#FFF" d="M51.529,62.667c0,0,0.128,0.204,0.276,0.599c0.143,0.393,0.316,0.979,0.328,1.731 c-0.007,0.19-0.014,0.39-0.021,0.595c-0.028,0.207-0.068,0.422-0.114,0.646c-0.124,0.44-0.313,0.915-0.634,1.349 c-0.317,0.432-0.751,0.833-1.25,1.094c-0.495,0.292-1.039,0.428-1.568,0.529l-0.789,0.067c-0.467,0.009-0.687-0.091-0.98-0.177 c-0.552-0.188-1.044-0.51-1.428-0.901c-0.397-0.386-0.642-0.856-0.816-1.291c-0.16-0.444-0.213-0.87-0.24-1.251 c-0.018-0.762,0.117-1.355,0.251-1.752c0.139-0.398,0.235-0.612,0.235-0.612s0.07,0.236,0.163,0.626 c0.033,0.196,0.119,0.428,0.188,0.684c0.061,0.261,0.193,0.529,0.287,0.819c0.257,0.561,0.611,1.12,1.112,1.452 c0.246,0.172,0.526,0.295,0.823,0.373c0.13,0.036,0.351,0.064,0.333,0.049l0.557-0.063c0.723-0.114,1.315-0.357,1.768-0.781 c0.228-0.211,0.417-0.471,0.588-0.747c0.154-0.285,0.295-0.58,0.405-0.874c0.092-0.297,0.187-0.579,0.252-0.84 c0.061-0.268,0.113-0.5,0.156-0.691C51.492,62.906,51.529,62.667,51.529,62.667z"/></g><path fill="none" stroke="#FFF" stroke-miterlimit="10" stroke-width="2" d="M34.779,49.917c0,0-0.875-3.625,4.75-3.75 l59.875,0.75c0,0,4.25-0.5,3.75,6.875"/><path fill="none" stroke="#FFF" stroke-miterlimit="10" stroke-width="2" d="M101.404,122.292c0,0,4.375-0.125,4.25-4.375 l-0.625-10.875"/><path fill="none" stroke="#FFF" stroke-miterlimit="10" stroke-width="3" d="M83.029,51.042l12.75,0.125 c0,0,2.75,0.875,2.25,6.25l2.5,56.25c0,0,3.125,12.875-4.25,13.125l-64-0.125c0,0-5.625,1.125-4.875-9l2.5-62.625 c0,0,0.125-4.125,4.625-3.875l10.875,0.125"/><line x1="50.904" x2="77.529" y1="51.292" y2="51.417" fill="none" stroke="#FFF" stroke-miterlimit="10" stroke-width="3"/></g></g></svg>